<svg id="Group_12" data-name="Group 12" xmlns="http://www.w3.org/2000/svg" width="120.971" height="48.214" viewBox="0 0 120.971 48.214">
  <circle id="Ellipse_24" data-name="Ellipse 24" cx="7.143" cy="7.143" r="7.143" transform="translate(91.806 33.929)" fill="#fff"/>
  <circle id="Ellipse_25" data-name="Ellipse 25" cx="7.143" cy="7.143" r="7.143" transform="translate(27.52 33.929)" fill="#fff"/>
  <path id="Path_113" data-name="Path 113" d="M119.5,34.938c-.327-2.447-2.469-4.938-4.938-4.938H5.938A5.31,5.31,0,0,0,1,34.938V68.266l23.454,2.469a11.11,11.11,0,0,1,22.219,0h41.97a11.11,11.11,0,0,1,22.219,0h11.11V53.454ZM20.75,49.75H8.406V38.641H20.75Zm18.516,0H28.157V38.641h11.11Zm19.75,0H46.673V38.641H59.017Zm19.75,0H66.423V38.641H78.767Zm19.75,0H86.173V38.641H98.517Zm7.406,3.7V38.641h6.666l1.852,14.813Z" transform="translate(-1 -30)" fill="#fff"/>
</svg>
