<svg xmlns="http://www.w3.org/2000/svg" width="77.878" height="16" viewBox="0 0 77.878 16">
  <g id="Group_1067" data-name="Group 1067" transform="translate(1411.514 3185)">
    <ellipse id="Ellipse_43" data-name="Ellipse 43" cx="2.304" cy="2.304" rx="2.304" ry="2.304" transform="translate(-1347.792 -3173.608)"/>
    <path id="Path_210" data-name="Path 210" d="M42.208,42.246a.621.621,0,0,0-.621.621V54.7a.621.621,0,1,0,1.242,0V42.867A.62.62,0,0,0,42.208,42.246Z" transform="translate(-1421.497 -3225.963)"/>
    <path id="Path_211" data-name="Path 211" d="M44.164,42.246a.621.621,0,0,0-.621.621V54.7a.621.621,0,1,0,1.242,0V42.867A.621.621,0,0,0,44.164,42.246Z" transform="translate(-1421.758 -3225.963)"/>
    <path id="Path_212" data-name="Path 212" d="M46.12,42.246a.621.621,0,0,0-.621.621V54.7a.621.621,0,1,0,1.242,0V42.867A.621.621,0,0,0,46.12,42.246Z" transform="translate(-1422.02 -3225.963)"/>
    <path id="Path_213" data-name="Path 213" d="M48.076,42.246a.621.621,0,0,0-.621.621V54.7a.621.621,0,1,0,1.242,0V42.867A.621.621,0,0,0,48.076,42.246Z" transform="translate(-1422.281 -3225.963)"/>
    <ellipse id="Ellipse_44" data-name="Ellipse 44" cx="2.304" cy="2.304" rx="2.304" ry="2.304" transform="translate(-1403.554 -3173.608)"/>
    <ellipse id="Ellipse_45" data-name="Ellipse 45" cx="2.304" cy="2.304" rx="2.304" ry="2.304" transform="translate(-1363.979 -3173.608)"/>
    <path id="Path_214" data-name="Path 214" d="M35.694,41.869H20.607l-2.192-.875a3.877,3.877,0,0,0-1.2-.23H11.365a4.134,4.134,0,0,0-1.2.217l-2.4.889H5.723a.623.623,0,0,0-.621.621V54.63a.623.623,0,0,0,.621.621h6.792a2.981,2.981,0,1,1,5.7,0H35.694a.623.623,0,0,0,.621-.621V42.491A.622.622,0,0,0,35.694,41.869ZM12.816,47.706a.623.623,0,0,1-.621.621H10.331a1.455,1.455,0,1,0-1.441,0H7.026a.623.623,0,0,1-.621-.621V43.868h6.411Zm0-4.148H6.4v-.034a.623.623,0,0,1,.621-.621h5.168a.623.623,0,0,1,.621.621v.034Zm7.341,4.148a.623.623,0,0,1-.621.621H17.673a1.455,1.455,0,1,0-1.441,0H14.368a.623.623,0,0,1-.621-.621V43.868h6.411v3.838Zm0-4.148H13.746v-.034a.623.623,0,0,1,.621-.621h5.168a.623.623,0,0,1,.621.621v.034Zm7.137,10.085a.623.623,0,0,1-.621.621H24.741V42.9h-.932V54.264H21.877a.623.623,0,0,1-.621-.621V43.524a.623.623,0,0,1,.621-.621h4.8a.623.623,0,0,1,.621.621Zm7.547-5.937a.623.623,0,0,1-.621.621H32.56a1.455,1.455,0,1,0-1.441,0H29.051a.623.623,0,0,1-.621-.621V43.524a.623.623,0,0,1,.621-.621h5.168a.623.623,0,0,1,.621.621v4.182Z" transform="translate(-1416.616 -3225.764)"/>
    <path id="Path_215" data-name="Path 215" d="M88.528,41.075h-9.58a4.12,4.12,0,0,0-1.2.217l-1.544.577H65.237l-2.192-.875a3.877,3.877,0,0,0-1.2-.23H56a4.129,4.129,0,0,0-1.2.217l-2.4.889H49.919a.623.623,0,0,0-.621.621V54.63a.623.623,0,0,0,.621.621H58a2.981,2.981,0,1,1,5.7,0H74.189a2.981,2.981,0,1,1,5.7,0H87.6a.623.623,0,0,0,.621-.621V42.491a.592.592,0,0,0-.008-.08.926.926,0,0,0,.159-.178l.428-.641C88.994,41.308,88.869,41.075,88.528,41.075ZM57.2,53.643a.623.623,0,0,1-.621.621H54.647V42.9h-.932V54.264H51.783a.623.623,0,0,1-.621-.621V43.524a.623.623,0,0,1,.621-.621h4.8a.623.623,0,0,1,.621.621Zm7.393-5.937a.623.623,0,0,1-.621.621H62.109a1.455,1.455,0,1,0-1.441,0H58.8a.623.623,0,0,1-.621-.621V43.868h6.411v3.838Zm0-4.148H58.182v-.034A.623.623,0,0,1,58.8,42.9h5.168a.623.623,0,0,1,.621.621v.034Zm7.484,4.148a.623.623,0,0,1-.621.621H69.75a1.455,1.455,0,1,0-1.441,0H66.287a.623.623,0,0,1-.621-.621V43.868h6.411Zm0-4.148H65.666v-.034a.623.623,0,0,1,.621-.621h5.168a.623.623,0,0,1,.621.621v.034Zm7.484,4.148a.623.623,0,0,1-.621.621H77.077a1.455,1.455,0,1,0-1.441,0H73.772a.623.623,0,0,1-.621-.621V43.868h6.411v3.838Zm0-4.148H73.15v-.034a.623.623,0,0,1,.621-.621h5.168a.623.623,0,0,1,.621.621v.034Zm3.723,10.707H81.353a.623.623,0,0,1-.621-.621V43.524a.623.623,0,0,1,.621-.621h1.932Zm3.486-.621a.623.623,0,0,1-.621.621H84.217V42.9h1.932a.623.623,0,0,1,.621.621Z" transform="translate(-1422.528 -3225.764)"/>
  </g>
</svg>
