<svg xmlns="http://www.w3.org/2000/svg" width="95.521" height="49.25" viewBox="0 0 95.521 49.25">
  <path id="Path_115" data-name="Path 115" d="M96.04,52.254c-5.784-.733-12.539-1.061-13.143-1.1a.377.377,0,1,0-.045.753c.617.037,7.75.379,13.617,1.159l.346.056a1.687,1.687,0,0,1,1.509,1.512v9.229a1.51,1.51,0,0,1-1.51,1.51h-.169v-.643a8.044,8.044,0,1,0-16.088,0l0,1.326a.378.378,0,0,1-.377.377h-42.4a.378.378,0,0,1-.377-.377l0-1.326a8.044,8.044,0,1,0-16.088,0l0,1.326a.379.379,0,0,1-.377.377H4.31A1.509,1.509,0,0,1,2.8,64.927V42.478H95.81Zm-85.6-8.408H4.309a.378.378,0,0,0-.377.377V64.929a.376.376,0,0,0,.377.377h6.134Zm.755.008V65.307h6.166a.376.376,0,0,0,.377-.378V48.9l0-2.894C17.745,44.452,14.925,43.939,11.2,43.854Zm24.369,3.138a1.132,1.132,0,0,0-1.132-1.132H23.921a1.133,1.133,0,0,0-1.132,1.132v4.065a1.134,1.134,0,0,0,1.132,1.135H34.435a1.133,1.133,0,0,0,1.132-1.135Zm14.747,0a1.134,1.134,0,0,0-1.132-1.132H38.667a1.133,1.133,0,0,0-1.132,1.132v4.065a1.134,1.134,0,0,0,1.132,1.135H49.182a1.135,1.135,0,0,0,1.132-1.135Zm14.744,0a1.133,1.133,0,0,0-1.132-1.132H53.41a1.132,1.132,0,0,0-1.131,1.132v4.065a1.133,1.133,0,0,0,1.131,1.135H63.926a1.134,1.134,0,0,0,1.132-1.135Zm14.746,0a1.133,1.133,0,0,0-1.132-1.132H68.155a1.133,1.133,0,0,0-1.132,1.132v4.065a1.134,1.134,0,0,0,1.132,1.135H78.672A1.134,1.134,0,0,0,79.8,51.056Zm15.011-2.554a.378.378,0,0,0-.377-.377l-.4,0a69.4,69.4,0,0,0-8.94.658c-2.719.427-3.159,1.136-3.159,1.889v3.541a.378.378,0,0,0,.377.377h12.12a.378.378,0,0,0,.377-.377ZM88.6,58.582a6.15,6.15,0,1,1-6.15,6.151A6.15,6.15,0,0,1,88.6,58.582Zm0,9.069a2.916,2.916,0,1,0-2.915-2.915A2.915,2.915,0,0,0,88.6,67.651ZM12.613,21.632l76.9.07a4.485,4.485,0,0,1,4.3,3.773l1.835,14.738H2.8V31.445A9.813,9.813,0,0,1,12.613,21.632ZM81.787,30.5a1.133,1.133,0,0,0,1.132,1.132h9.6a.7.7,0,0,0,.659-.629c0-3.372-2.026-5.7-6.247-5.7H82.921a1.133,1.133,0,0,0-1.132,1.132V30.5Zm-14.765,0a1.133,1.133,0,0,0,1.132,1.132H78.672A1.133,1.133,0,0,0,79.8,30.5V26.437A1.134,1.134,0,0,0,78.672,25.3H68.155a1.133,1.133,0,0,0-1.132,1.132Zm-14.744,0a1.132,1.132,0,0,0,1.131,1.132H63.926A1.133,1.133,0,0,0,65.058,30.5V26.437A1.133,1.133,0,0,0,63.926,25.3H53.41a1.132,1.132,0,0,0-1.131,1.132Zm-14.744,0a1.133,1.133,0,0,0,1.132,1.132H49.182A1.134,1.134,0,0,0,50.314,30.5V26.437A1.134,1.134,0,0,0,49.182,25.3H38.667a1.133,1.133,0,0,0-1.132,1.132Zm-14.746,0a1.133,1.133,0,0,0,1.132,1.132H34.435A1.132,1.132,0,0,0,35.567,30.5V26.437A1.132,1.132,0,0,0,34.435,25.3H23.921a1.133,1.133,0,0,0-1.132,1.132Zm-13.7,1.132H19.609A1.132,1.132,0,0,0,20.74,30.5V26.437A1.132,1.132,0,0,0,19.609,25.3H15.6c-4.221,0-7.162,2.331-7.162,5.7A.7.7,0,0,0,9.091,31.637ZM29.359,58.582a6.15,6.15,0,1,1-6.15,6.151A6.15,6.15,0,0,1,29.359,58.582Zm0,9.069a2.916,2.916,0,1,0-2.916-2.915A2.916,2.916,0,0,0,29.359,67.651Z" transform="translate(-2.801 -21.632)" fill="#fff"/>
</svg>
